<?xml version="1.0" encoding="UTF-8" standalone="no"?>
<!-- Created with Inkscape (http://www.inkscape.org/) -->

<svg
   xmlns:dc="http://purl.org/dc/elements/1.1/"
   xmlns:cc="http://creativecommons.org/ns#"
   xmlns:rdf="http://www.w3.org/1999/02/22-rdf-syntax-ns#"
   xmlns:svg="http://www.w3.org/2000/svg"
   xmlns="http://www.w3.org/2000/svg"
   xmlns:sodipodi="http://sodipodi.sourceforge.net/DTD/sodipodi-0.dtd"
   xmlns:inkscape="http://www.inkscape.org/namespaces/inkscape"
   width="744.09448819"
   height="1052.3622047"
   id="svg6093"
   version="1.1"
   inkscape:version="0.48.4 r9939"
   sodipodi:docname="New document 18">
  <defs
     id="defs6095">
    <inkscape:perspective
       sodipodi:type="inkscape:persp3d"
       inkscape:vp_x="-8.8388348 : 644.74211 : 1"
       inkscape:vp_y="0 : 1753.3471 : 0"
       inkscape:vp_z="744.09448 : 610.84124 : 1"
       inkscape:persp3d-origin="372.04724 : 303.3152 : 1"
       id="perspective6822" />
  </defs>
  <sodipodi:namedview
     id="base"
     pagecolor="#ffffff"
     bordercolor="#666666"
     borderopacity="1.0"
     inkscape:pageopacity="0.0"
     inkscape:pageshadow="2"
     inkscape:zoom="2.56"
     inkscape:cx="296.54237"
     inkscape:cy="515.96489"
     inkscape:document-units="px"
     inkscape:current-layer="g6866"
     showgrid="false"
     inkscape:window-width="1280"
     inkscape:window-height="1388"
     inkscape:window-x="3200"
     inkscape:window-y="24"
     inkscape:window-maximized="0" />
  <metadata
     id="metadata6098">
    <rdf:RDF>
      <cc:Work
         rdf:about="">
        <dc:format>image/svg+xml</dc:format>
        <dc:type
           rdf:resource="http://purl.org/dc/dcmitype/StillImage" />
        <dc:title></dc:title>
      </cc:Work>
    </rdf:RDF>
  </metadata>
  <g
     inkscape:label="Layer 1"
     inkscape:groupmode="layer"
     id="layer1">
    <g
       sodipodi:type="inkscape:box3d"
       style="fill:#8dd35f;fill-opacity:1;stroke:none"
       id="g6866"
       inkscape:perspectiveID="#perspective6822"
       inkscape:corner0="0.79116342 : 0.065423477 : 0 : 1"
       inkscape:corner7="0.4801702 : -0.00022992461 : 0.25 : 1">
      <path
         sodipodi:type="inkscape:box3dside"
         id="path6876"
         style="fill:#aade87"
         inkscape:box3dsidetype="13"
         d="m 203.80847,598.46254 44.67856,40.09722 71.61253,-28.47101 -50.11731,-30.84829 z" />
      <path
         sodipodi:type="inkscape:box3dside"
         id="path6868"
         style="fill:#353564;fill-rule:evenodd;stroke:none"
         inkscape:box3dsidetype="6"
         d="m 203.80847,534.19526 0,64.26728 66.17378,-19.22208 0,-56.39587 z" />
      <path
         sodipodi:type="inkscape:box3dside"
         id="path6878"
         style="fill:#e9e9ff;fill-rule:evenodd;stroke:none"
         inkscape:box3dsidetype="11"
         d="m 269.98225,522.84459 50.11731,20.71128 0,66.53288 -50.11731,-30.84829 z" />
      <path
         sodipodi:type="inkscape:box3dside"
         id="path6870"
         style="fill:#71c837;fill-rule:evenodd;stroke:none"
         inkscape:box3dsidetype="5"
         d="m 203.80847,534.19526 44.67856,26.59426 71.61253,-17.23365 -50.11731,-20.71128 z" />
      <path
         sodipodi:type="inkscape:box3dside"
         id="path6874"
         style="fill:#c6e9af"
         inkscape:box3dsidetype="14"
         d="m 248.48703,560.78952 0,77.77024 71.61253,-28.47101 0,-66.53288 z" />
      <path
         sodipodi:type="inkscape:box3dside"
         id="path6872"
         style="fill:#8dd35f"
         inkscape:box3dsidetype="3"
         d="m 203.80847,534.19526 44.67856,26.59426 0,77.77024 -44.67856,-40.09722 z" />
      <path
         style="fill:none;stroke:#000000;stroke-width:1.00233185px;stroke-linecap:butt;stroke-linejoin:miter;stroke-opacity:1"
         d="m 204.12301,555.1789 43.84918,27.89523 72.4344,-17.95238 0,0 0,0"
         id="path6880"
         inkscape:connector-curvature="0" />
      <path
         style="fill:none;stroke:#000000;stroke-width:1px;stroke-linecap:butt;stroke-linejoin:miter;stroke-opacity:1"
         d="m 204.12184,579.76073 c 44.47039,32.04078 44.47039,32.04078 44.47039,32.04078 l 0,0 71.81553,-24.3068"
         id="path6882"
         inkscape:connector-curvature="0" />
      <path
         style="fill:#87aade;fill-opacity:1;stroke:none"
         d="m 226.37565,595.04689 c -20.1905,-14.56997 -21.90132,-15.76242 -22.2168,-15.48529 -0.32507,0.28557 -0.34179,-0.28954 -0.34179,-11.75326 0,-9.58876 0.0499,-12.02431 0.24414,-11.91072 0.13428,0.0785 9.98687,6.33451 21.89466,13.90215 11.90779,7.56763 21.81745,13.80299 22.02148,13.85635 0.35992,0.0941 0.37097,0.50067 0.37097,13.64845 0,7.45329 -0.022,13.54613 -0.0488,13.53965 -0.0269,-0.006 -9.89258,-7.11528 -21.92383,-15.79733 l 0,0 z"
         id="path6888"
         inkscape:connector-curvature="0" />
      <path
         style="fill:#afc6e9;fill-opacity:1;stroke:none"
         d="m 248.54362,597.28179 c 0,-7.57324 0.0369,-13.76953 0.082,-13.76953 0.0451,0 16.04824,-3.95508 35.56255,-8.78907 19.51432,-4.83398 35.56141,-8.78906 35.66021,-8.78906 0.10709,0 0.17964,4.25948 0.17964,10.54688 0,5.80078 -0.0303,10.54687 -0.0672,10.54687 -0.037,0 -16.03998,5.40527 -35.56226,12.01172 -19.52228,6.60645 -35.57602,12.01172 -35.67498,12.01172 -0.108,0 -0.17993,-5.50478 -0.17993,-13.76953 z"
         id="path6890"
         inkscape:connector-curvature="0" />
      <path
         style="fill:#939dac;fill-opacity:1;stroke:none"
         d="m 226.01792,618.27223 -22.20086,-19.92752 0,-8.98843 c 0,-7.59707 0.0418,-8.96426 0.27013,-8.83224 0.14857,0.0859 10.16349,7.27533 22.25538,15.9765 l 21.98526,15.82031 0.0102,12.93945 c 0.006,7.1167 -0.0189,12.93946 -0.0545,12.93946 -0.0356,0 -10.05515,-8.96739 -22.26563,-19.92753 l 1e-5,0 z"
         id="path6892"
         inkscape:connector-curvature="0" />
      <path
         style="fill:#b7bec8;fill-opacity:1;stroke:none"
         d="m 248.54362,625.43266 0,-12.9624 7.27539,-2.46944 c 4.00147,-1.35819 20.08545,-6.80443 35.74219,-12.10275 l 28.4668,-9.63331 0,10.872 0,10.87199 -0.43946,0.21366 c -0.2417,0.11752 -1.53808,0.62934 -2.88086,1.1374 -1.34277,0.50805 -2.5249,0.99804 -2.62695,1.08887 -0.10205,0.0908 -0.30076,0.16514 -0.44158,0.16514 -0.14082,0 -0.67256,0.18454 -1.18164,0.41009 -0.50908,0.22555 -1.10139,0.47746 -1.31623,0.5598 -0.21485,0.0824 -0.61035,0.23761 -0.87891,0.34503 l -0.97656,0.39063 c -0.26856,0.10742 -0.72998,0.29496 -1.02539,0.41675 -0.29541,0.1218 -0.75684,0.30934 -1.02539,0.41676 -0.26856,0.10742 -0.72998,0.29496 -1.02539,0.41676 -0.29541,0.12179 -0.73487,0.29757 -0.97657,0.39062 -0.52029,0.20031 -1.24594,0.48989 -1.85547,0.74047 -0.24169,0.0994 -1.53808,0.59634 -2.88085,1.10439 -1.34278,0.50805 -2.52491,0.99804 -2.62696,1.08887 -0.10205,0.0908 -0.30076,0.16514 -0.44158,0.16514 -0.14082,0 -0.67256,0.18454 -1.18164,0.41009 -1.01457,0.44951 -1.66867,0.72416 -2.34162,0.98323 -0.55948,0.21539 -1.26932,0.49932 -1.95313,0.78125 -0.68381,0.28193 -1.39364,0.56586 -1.95312,0.78125 -0.2417,0.093 -0.68115,0.26883 -0.97656,0.39063 -0.29541,0.12179 -0.71289,0.28581 -0.92774,0.36449 -0.21484,0.0787 -0.61035,0.2361 -0.8789,0.34984 -0.26856,0.11374 -1.58692,0.62247 -2.92969,1.13052 -1.34278,0.50805 -2.5249,0.99805 -2.62696,1.08887 -0.10205,0.0908 -0.30076,0.16514 -0.44158,0.16514 -0.14082,0 -0.67255,0.18455 -1.18164,0.41009 -1.25433,0.55574 -2.42937,1.04012 -3.26935,1.34773 -0.21485,0.0787 -0.6543,0.25445 -0.97657,0.39062 -0.32226,0.13617 -0.76171,0.31195 -0.97656,0.39063 -0.42915,0.15715 -1.07817,0.41451 -1.9043,0.75511 -0.29541,0.1218 -0.75683,0.30934 -1.02539,0.41676 -0.26855,0.10742 -0.68603,0.27661 -0.92773,0.37597 -0.2417,0.0994 -1.53809,0.59634 -2.88086,1.10439 -1.34277,0.50806 -2.5249,0.99805 -2.62695,1.08888 -0.10205,0.0908 -0.30077,0.16514 -0.44158,0.16514 -0.14082,0 -0.67256,0.18454 -1.18165,0.41009 -0.50908,0.22555 -1.10138,0.47746 -1.31623,0.5598 -0.21484,0.0823 -0.65429,0.26113 -0.97656,0.39729 -0.32226,0.13617 -0.80566,0.33547 -1.07422,0.44289 -0.26855,0.10742 -0.66406,0.25969 -0.8789,0.33836 -0.21485,0.0787 -0.6543,0.25446 -0.97657,0.39063 -0.32226,0.13617 -0.78369,0.32371 -1.02539,0.41676 -0.2417,0.0931 -0.65918,0.25707 -0.92773,0.36449 l -0.97656,0.39062 c -0.26856,0.10743 -0.68604,0.27661 -0.92774,0.37598 -0.2417,0.0994 -1.53808,0.59633 -2.88086,1.10439 -1.34277,0.50805 -2.5249,0.99804 -2.62695,1.08887 -0.68639,0.6109 -0.69336,0.48234 -0.69336,-12.79727 z"
         id="path6894"
         inkscape:connector-curvature="0" />
      <path
         style="fill:none;stroke:#000000;stroke-width:1px;stroke-linecap:butt;stroke-linejoin:miter;stroke-opacity:1"
         d="m 248.53516,560.66296 -0.19531,77.53906 0,0"
         id="path6896"
         inkscape:connector-curvature="0" />
      <text
         xml:space="preserve"
         style="font-size:15px;font-style:normal;font-variant:normal;font-weight:500;font-stretch:normal;text-align:start;line-height:100%;letter-spacing:0px;word-spacing:0px;writing-mode:lr-tb;text-anchor:start;fill:#000000;fill-opacity:1;stroke:none;font-family:Ubuntu;-inkscape-font-specification:Ubuntu Medium"
         x="110.6251"
         y="623.00854"
         id="text6898"
         sodipodi:linespacing="100%"
         transform="matrix(0.96693696,-0.25501552,0.25501552,0.96693696,0,0)"><tspan
           sodipodi:role="line"
           id="tspan6900"
           x="110.6251"
           y="623.00854"
           style="font-size:15px;font-style:normal;font-variant:normal;font-weight:500;font-stretch:normal;text-align:start;line-height:100%;writing-mode:lr-tb;text-anchor:start;font-family:Ubuntu;-inkscape-font-specification:Ubuntu Medium">Nginx</tspan></text>
      <text
         xml:space="preserve"
         style="font-size:20px;font-style:normal;font-variant:normal;font-weight:300;font-stretch:normal;text-align:start;line-height:100%;letter-spacing:0px;word-spacing:0px;writing-mode:lr-tb;text-anchor:start;fill:#000000;fill-opacity:1;stroke:none;font-family:Ubuntu;-inkscape-font-specification:Ubuntu Light"
         x="67.637764"
         y="654.38184"
         id="text6902"
         sodipodi:linespacing="100%"
         transform="matrix(0.95157608,-0.30741335,0.30741335,0.95157608,0,0)"><tspan
           sodipodi:role="line"
           id="tspan6904"
           x="67.637764"
           y="654.38184"
           style="font-size:15px;font-style:normal;font-variant:normal;font-weight:500;font-stretch:normal;text-align:start;line-height:100%;writing-mode:lr-tb;text-anchor:start;font-family:Ubuntu;-inkscape-font-specification:Ubuntu Medium">Docker</tspan></text>
      <text
         xml:space="preserve"
         style="font-size:20px;font-style:normal;font-variant:normal;font-weight:300;font-stretch:normal;text-align:start;line-height:100%;letter-spacing:0px;word-spacing:0px;writing-mode:lr-tb;text-anchor:start;fill:#000000;fill-opacity:1;stroke:none;font-family:Ubuntu;-inkscape-font-specification:Ubuntu Light"
         x="-2.0536673"
         y="684.20679"
         id="text6906"
         sodipodi:linespacing="100%"
         transform="matrix(0.91343255,-0.40699014,0.40699014,0.91343255,0,0)"><tspan
           sodipodi:role="line"
           id="tspan6908"
           x="-2.0536673"
           y="684.20679"
           style="font-size:15px;font-style:normal;font-variant:normal;font-weight:500;font-stretch:normal;text-align:start;line-height:100%;writing-mode:lr-tb;text-anchor:start;font-family:Ubuntu;-inkscape-font-specification:Ubuntu Medium">Base</tspan></text>
    </g>
  </g>
</svg>
